<mxfile host="Electron" modified="2024-06-13T01:50:24.826Z" agent="Mozilla/5.0 (Windows NT 10.0; Win64; x64) AppleWebKit/537.36 (KHTML, like Gecko) draw.io/24.4.0 Chrome/120.0.6099.109 Electron/28.1.0 Safari/537.36" etag="byYsyEuFkb_wGkIF3OsS" version="24.4.0" type="device">
  <diagram name="第 1 页" id="b04dUmWzA-TVEbHrEcft">
    <mxGraphModel dx="1434" dy="844" grid="1" gridSize="10" guides="1" tooltips="1" connect="1" arrows="1" fold="1" page="1" pageScale="1" pageWidth="827" pageHeight="1169" math="0" shadow="0">
      <root>
        <mxCell id="0" />
        <mxCell id="1" parent="0" />
        <mxCell id="4djWOOgGUXpCvrjaS2Bz-4" style="edgeStyle=orthogonalEdgeStyle;rounded=0;orthogonalLoop=1;jettySize=auto;html=1;" edge="1" parent="1" source="4djWOOgGUXpCvrjaS2Bz-6" target="4djWOOgGUXpCvrjaS2Bz-3">
          <mxGeometry relative="1" as="geometry" />
        </mxCell>
        <mxCell id="4djWOOgGUXpCvrjaS2Bz-1" value="C2R_LoginAccount" style="rounded=1;whiteSpace=wrap;html=1;" vertex="1" parent="1">
          <mxGeometry x="354" y="60" width="120" height="60" as="geometry" />
        </mxCell>
        <mxCell id="4djWOOgGUXpCvrjaS2Bz-12" style="edgeStyle=orthogonalEdgeStyle;rounded=0;orthogonalLoop=1;jettySize=auto;html=1;" edge="1" parent="1" source="4djWOOgGUXpCvrjaS2Bz-3" target="4djWOOgGUXpCvrjaS2Bz-7">
          <mxGeometry relative="1" as="geometry" />
        </mxCell>
        <mxCell id="4djWOOgGUXpCvrjaS2Bz-3" value="C2R_LoginAccountHandler" style="rounded=1;whiteSpace=wrap;html=1;" vertex="1" parent="1">
          <mxGeometry x="326" y="250" width="176" height="70" as="geometry" />
        </mxCell>
        <mxCell id="4djWOOgGUXpCvrjaS2Bz-5" value="" style="edgeStyle=orthogonalEdgeStyle;rounded=0;orthogonalLoop=1;jettySize=auto;html=1;" edge="1" parent="1" source="4djWOOgGUXpCvrjaS2Bz-1" target="4djWOOgGUXpCvrjaS2Bz-6">
          <mxGeometry relative="1" as="geometry">
            <mxPoint x="414" y="120" as="sourcePoint" />
            <mxPoint x="414" y="240" as="targetPoint" />
          </mxGeometry>
        </mxCell>
        <mxCell id="4djWOOgGUXpCvrjaS2Bz-6" value="登录Gate" style="text;html=1;align=center;verticalAlign=middle;whiteSpace=wrap;rounded=0;" vertex="1" parent="1">
          <mxGeometry x="384" y="155" width="60" height="30" as="geometry" />
        </mxCell>
        <mxCell id="4djWOOgGUXpCvrjaS2Bz-9" style="edgeStyle=orthogonalEdgeStyle;rounded=0;orthogonalLoop=1;jettySize=auto;html=1;" edge="1" parent="1" source="4djWOOgGUXpCvrjaS2Bz-10" target="4djWOOgGUXpCvrjaS2Bz-8">
          <mxGeometry relative="1" as="geometry" />
        </mxCell>
        <mxCell id="4djWOOgGUXpCvrjaS2Bz-7" value="C2R_GetServerInfos" style="rounded=1;whiteSpace=wrap;html=1;" vertex="1" parent="1">
          <mxGeometry x="354" y="410" width="120" height="60" as="geometry" />
        </mxCell>
        <mxCell id="4djWOOgGUXpCvrjaS2Bz-14" style="edgeStyle=orthogonalEdgeStyle;rounded=0;orthogonalLoop=1;jettySize=auto;html=1;entryX=0.5;entryY=0;entryDx=0;entryDy=0;" edge="1" parent="1" source="4djWOOgGUXpCvrjaS2Bz-8" target="4djWOOgGUXpCvrjaS2Bz-13">
          <mxGeometry relative="1" as="geometry" />
        </mxCell>
        <mxCell id="4djWOOgGUXpCvrjaS2Bz-8" value="C2R_GetRoles&lt;br&gt;获取角色信息，没有就创建" style="rounded=1;whiteSpace=wrap;html=1;" vertex="1" parent="1">
          <mxGeometry x="324" y="630" width="180" height="60" as="geometry" />
        </mxCell>
        <mxCell id="4djWOOgGUXpCvrjaS2Bz-11" value="" style="edgeStyle=orthogonalEdgeStyle;rounded=0;orthogonalLoop=1;jettySize=auto;html=1;" edge="1" parent="1" source="4djWOOgGUXpCvrjaS2Bz-7" target="4djWOOgGUXpCvrjaS2Bz-10">
          <mxGeometry relative="1" as="geometry">
            <mxPoint x="414" y="470" as="sourcePoint" />
            <mxPoint x="414" y="560" as="targetPoint" />
          </mxGeometry>
        </mxCell>
        <mxCell id="4djWOOgGUXpCvrjaS2Bz-10" value="获取服务器列表" style="text;html=1;align=center;verticalAlign=middle;whiteSpace=wrap;rounded=0;" vertex="1" parent="1">
          <mxGeometry x="384" y="520" width="60" height="30" as="geometry" />
        </mxCell>
        <mxCell id="4djWOOgGUXpCvrjaS2Bz-13" value="C2R_GetRealmKey" style="rounded=1;whiteSpace=wrap;html=1;" vertex="1" parent="1">
          <mxGeometry x="354" y="820" width="120" height="60" as="geometry" />
        </mxCell>
      </root>
    </mxGraphModel>
  </diagram>
</mxfile>
